<svg width="501" height="501" viewBox="0 0 501 501" fill="none" xmlns="http://www.w3.org/2000/svg">
<path fill-rule="evenodd" clip-rule="evenodd" d="M10.738 10.9654C24.6855 -2.98179 47.2984 -2.98179 61.2459 10.9654L250.278 199.998L439.31 10.9654C453.257 -2.98179 475.871 -2.98179 489.818 10.9654C503.764 24.9129 503.764 47.5258 489.818 61.4733L300.785 250.505L489.818 439.538C503.764 453.484 503.764 476.099 489.818 490.045C475.871 503.992 453.257 503.992 439.31 490.045L250.278 301.013L61.2459 490.045C47.2984 503.992 24.6855 503.992 10.738 490.045C-3.2092 476.099 -3.2092 453.484 10.738 439.538L199.771 250.505L10.738 61.4733C-3.2092 47.5258 -3.2092 24.9129 10.738 10.9654Z" fill="#292929"/>
</svg>
